<mxfile host="app.diagrams.net" modified="2023-12-28T15:58:20.291Z" agent="Mozilla/5.0 (Windows NT 10.0; Win64; x64) AppleWebKit/537.36 (KHTML, like Gecko) Chrome/120.0.0.0 Safari/537.36" etag="aPy-h95SPbWuDCHSyT56" version="21.6.1" type="device">
  <diagram id="m4eVXJwNsH_s_JhHoiYs" name="Page-1">
    <mxGraphModel dx="561" dy="299" grid="1" gridSize="10" guides="1" tooltips="1" connect="1" arrows="1" fold="1" page="1" pageScale="1" pageWidth="470" pageHeight="175" math="1" shadow="0">
      <root>
        <mxCell id="0" />
        <mxCell id="1" parent="0" />
        <mxCell id="AQ_2sDLIxfy93o0sO916-7" value="" style="rounded=0;whiteSpace=wrap;html=1;fillColor=#0d33c9;fontColor=#333333;strokeColor=none;" parent="1" vertex="1">
          <mxGeometry x="200" y="36" width="130" height="10" as="geometry" />
        </mxCell>
        <mxCell id="AQ_2sDLIxfy93o0sO916-6" value="" style="rounded=0;whiteSpace=wrap;html=1;fillColor=#009900;fontColor=#333333;strokeColor=none;gradientColor=none;shadow=0;glass=0;" parent="1" vertex="1">
          <mxGeometry x="30" y="46" width="300" height="10" as="geometry" />
        </mxCell>
        <mxCell id="AQ_2sDLIxfy93o0sO916-2" value="" style="endArrow=none;html=1;rounded=0;strokeWidth=1;" parent="1" edge="1">
          <mxGeometry width="50" height="50" relative="1" as="geometry">
            <mxPoint x="30" y="45" as="sourcePoint" />
            <mxPoint x="30" y="66" as="targetPoint" />
          </mxGeometry>
        </mxCell>
        <mxCell id="AQ_2sDLIxfy93o0sO916-5" value="" style="endArrow=none;html=1;rounded=0;strokeWidth=1;" parent="1" edge="1">
          <mxGeometry width="50" height="50" relative="1" as="geometry">
            <mxPoint x="160" y="46" as="sourcePoint" />
            <mxPoint x="160" y="66" as="targetPoint" />
          </mxGeometry>
        </mxCell>
        <mxCell id="AQ_2sDLIxfy93o0sO916-10" value="" style="endArrow=none;html=1;rounded=0;strokeWidth=1;" parent="1" edge="1">
          <mxGeometry width="50" height="50" relative="1" as="geometry">
            <mxPoint x="410" y="26" as="sourcePoint" />
            <mxPoint x="410" y="46" as="targetPoint" />
          </mxGeometry>
        </mxCell>
        <mxCell id="AQ_2sDLIxfy93o0sO916-12" value="" style="endArrow=none;html=1;rounded=0;strokeWidth=1;" parent="1" edge="1">
          <mxGeometry width="50" height="50" relative="1" as="geometry">
            <mxPoint x="329.5" y="26" as="sourcePoint" />
            <mxPoint x="329.5" y="66" as="targetPoint" />
          </mxGeometry>
        </mxCell>
        <mxCell id="AQ_2sDLIxfy93o0sO916-13" value="" style="endArrow=none;html=1;rounded=0;strokeWidth=1;" parent="1" edge="1">
          <mxGeometry width="50" height="50" relative="1" as="geometry">
            <mxPoint x="200" y="26" as="sourcePoint" />
            <mxPoint x="200" y="46" as="targetPoint" />
          </mxGeometry>
        </mxCell>
        <mxCell id="AQ_2sDLIxfy93o0sO916-18" value="" style="endArrow=none;html=1;rounded=0;strokeWidth=1;endFill=0;dashed=1;strokeColor=#000000;fontColor=#000000;" parent="1" edge="1">
          <mxGeometry width="50" height="50" relative="1" as="geometry">
            <mxPoint x="329.75" y="36" as="sourcePoint" />
            <mxPoint x="410.25" y="36" as="targetPoint" />
          </mxGeometry>
        </mxCell>
        <mxCell id="AQ_2sDLIxfy93o0sO916-23" value="&lt;font face=&quot;Times New Roman&quot; style=&quot;font-size: 12px;&quot; color=&quot;#000000&quot;&gt;time&lt;/font&gt;" style="text;html=1;resizable=0;autosize=1;align=center;verticalAlign=middle;points=[];fillColor=none;strokeColor=none;rounded=0;fontColor=#B3B3B3;fontStyle=2;fontSize=14;" parent="1" vertex="1">
          <mxGeometry x="425" y="29" width="40" height="30" as="geometry" />
        </mxCell>
        <mxCell id="AQ_2sDLIxfy93o0sO916-24" value="&lt;font color=&quot;#000000&quot; style=&quot;font-size: 9px;&quot;&gt;$$i$$&lt;/font&gt;" style="text;html=1;resizable=0;autosize=1;align=center;verticalAlign=middle;points=[];fillColor=none;strokeColor=none;rounded=0;fontColor=#B3B3B3;fontSize=9;" parent="1" vertex="1">
          <mxGeometry x="10" y="64" width="40" height="20" as="geometry" />
        </mxCell>
        <mxCell id="AQ_2sDLIxfy93o0sO916-26" value="&lt;font color=&quot;#000000&quot; style=&quot;font-size: 9px;&quot;&gt;$$i+p = i_p$$&lt;/font&gt;" style="text;html=1;resizable=0;autosize=1;align=center;verticalAlign=middle;points=[];fillColor=none;strokeColor=none;rounded=0;fontColor=#B3B3B3;fontSize=9;" parent="1" vertex="1">
          <mxGeometry x="120" y="64" width="70" height="20" as="geometry" />
        </mxCell>
        <mxCell id="AQ_2sDLIxfy93o0sO916-30" value="&lt;font color=&quot;#000000&quot; style=&quot;font-size: 9px;&quot;&gt;$$i+\bar{N}$$&lt;/font&gt;" style="text;html=1;resizable=0;autosize=1;align=center;verticalAlign=middle;points=[];fillColor=none;strokeColor=none;rounded=0;fontColor=#B3B3B3;fontSize=9;" parent="1" vertex="1">
          <mxGeometry x="300" y="64" width="80" height="20" as="geometry" />
        </mxCell>
        <mxCell id="AQ_2sDLIxfy93o0sO916-3" value="" style="endArrow=block;html=1;rounded=0;strokeWidth=2;endFill=1;startArrow=block;startFill=1;" parent="1" edge="1">
          <mxGeometry width="50" height="50" relative="1" as="geometry">
            <mxPoint x="10" y="46" as="sourcePoint" />
            <mxPoint x="430" y="46" as="targetPoint" />
          </mxGeometry>
        </mxCell>
        <mxCell id="0ot7vCy0zlvDfJLgfHZY-3" value="&lt;font color=&quot;#000000&quot; style=&quot;font-size: 9px;&quot;&gt;$$\hat{i}$$&lt;/font&gt;" style="text;html=1;resizable=0;autosize=1;align=center;verticalAlign=middle;points=[];fillColor=none;strokeColor=none;rounded=0;fontColor=#B3B3B3;fontSize=9;" vertex="1" parent="1">
          <mxGeometry x="165" y="6" width="70" height="20" as="geometry" />
        </mxCell>
        <mxCell id="0ot7vCy0zlvDfJLgfHZY-5" value="&lt;font color=&quot;#000000&quot; style=&quot;font-size: 9px;&quot;&gt;$$\hat{i}_p=\hat{i}+p$$&lt;/font&gt;" style="text;html=1;resizable=0;autosize=1;align=center;verticalAlign=middle;points=[];fillColor=none;strokeColor=none;rounded=0;fontColor=#B3B3B3;fontSize=9;" vertex="1" parent="1">
          <mxGeometry x="291" y="6" width="120" height="20" as="geometry" />
        </mxCell>
        <mxCell id="0ot7vCy0zlvDfJLgfHZY-9" value="&lt;font color=&quot;#000000&quot; style=&quot;font-size: 9px;&quot;&gt;$$\hat{i}_p+f$$&lt;/font&gt;" style="text;html=1;resizable=0;autosize=1;align=center;verticalAlign=middle;points=[];fillColor=none;strokeColor=none;rounded=0;fontColor=#B3B3B3;fontSize=9;" vertex="1" parent="1">
          <mxGeometry x="380" y="6" width="80" height="20" as="geometry" />
        </mxCell>
        <mxCell id="0ot7vCy0zlvDfJLgfHZY-30" value="" style="endArrow=baseDash;html=1;strokeWidth=1;endFill=0;strokeColor=#009900;fontColor=#000000;startArrow=baseDash;startFill=0;rounded=0;dashed=1;jumpStyle=none;jumpSize=2;" edge="1" parent="1">
          <mxGeometry width="50" height="50" relative="1" as="geometry">
            <mxPoint x="160" y="95" as="sourcePoint" />
            <mxPoint x="240" y="95" as="targetPoint" />
          </mxGeometry>
        </mxCell>
        <mxCell id="0ot7vCy0zlvDfJLgfHZY-32" value="&lt;font face=&quot;Times New Roman&quot;&gt;&lt;font style=&quot;font-size: 12px;&quot; color=&quot;#000000&quot;&gt;DeePC:&amp;nbsp; &amp;nbsp; &amp;nbsp; &amp;nbsp;&lt;/font&gt;&lt;font color=&quot;#000000&quot; style=&quot;font-size: 12px;&quot;&gt;\(N=\bar{N}-p-f+1\)&lt;/font&gt;&lt;/font&gt;&lt;font face=&quot;Times New Roman&quot; style=&quot;font-size: 12px;&quot; color=&quot;#000000&quot;&gt;&lt;br&gt;&lt;/font&gt;" style="text;html=1;resizable=0;autosize=1;align=center;verticalAlign=middle;points=[];fillColor=none;strokeColor=none;rounded=0;fontColor=#B3B3B3;fontStyle=2;fontSize=14;" vertex="1" parent="1">
          <mxGeometry x="249" y="87" width="180" height="30" as="geometry" />
        </mxCell>
        <mxCell id="0ot7vCy0zlvDfJLgfHZY-37" value="" style="endArrow=baseDash;html=1;rounded=0;strokeWidth=1;endFill=0;strokeColor=#009900;fontColor=#000000;startArrow=baseDash;startFill=0;" edge="1" parent="1">
          <mxGeometry width="50" height="50" relative="1" as="geometry">
            <mxPoint x="30" y="95" as="sourcePoint" />
            <mxPoint x="160" y="95" as="targetPoint" />
          </mxGeometry>
        </mxCell>
        <mxCell id="0ot7vCy0zlvDfJLgfHZY-39" value="&lt;font color=&quot;#000000&quot; style=&quot;font-size: 9px;&quot;&gt;$$p$$&lt;/font&gt;" style="text;html=1;resizable=0;autosize=1;align=center;verticalAlign=middle;points=[];fillColor=none;strokeColor=none;rounded=0;fontColor=#B3B3B3;fontSize=9;" vertex="1" parent="1">
          <mxGeometry x="60" y="100" width="50" height="20" as="geometry" />
        </mxCell>
        <mxCell id="0ot7vCy0zlvDfJLgfHZY-40" value="&lt;font color=&quot;#000000&quot; style=&quot;font-size: 9px;&quot;&gt;$$f_\mathrm{ID}=f$$&lt;/font&gt;" style="text;html=1;resizable=0;autosize=1;align=center;verticalAlign=middle;points=[];fillColor=none;strokeColor=none;rounded=0;fontColor=#B3B3B3;fontSize=9;" vertex="1" parent="1">
          <mxGeometry x="125" y="100" width="110" height="20" as="geometry" />
        </mxCell>
        <mxCell id="0ot7vCy0zlvDfJLgfHZY-44" value="" style="endArrow=baseDash;html=1;rounded=0;strokeWidth=1;endFill=0;strokeColor=#009900;fontColor=#000000;startArrow=baseDash;startFill=0;dashed=1;jumpSize=2;" edge="1" parent="1">
          <mxGeometry width="50" height="50" relative="1" as="geometry">
            <mxPoint x="160" y="130" as="sourcePoint" />
            <mxPoint x="170" y="130" as="targetPoint" />
          </mxGeometry>
        </mxCell>
        <mxCell id="0ot7vCy0zlvDfJLgfHZY-45" value="" style="endArrow=baseDash;html=1;rounded=0;strokeWidth=1;endFill=0;strokeColor=#009900;fontColor=#000000;startArrow=baseDash;startFill=0;" edge="1" parent="1">
          <mxGeometry width="50" height="50" relative="1" as="geometry">
            <mxPoint x="30" y="130" as="sourcePoint" />
            <mxPoint x="160" y="130" as="targetPoint" />
          </mxGeometry>
        </mxCell>
        <mxCell id="0ot7vCy0zlvDfJLgfHZY-46" value="&lt;font color=&quot;#000000&quot; style=&quot;font-size: 9px;&quot;&gt;$$p$$&lt;/font&gt;" style="text;html=1;resizable=0;autosize=1;align=center;verticalAlign=middle;points=[];fillColor=none;strokeColor=none;rounded=0;fontColor=#B3B3B3;fontSize=9;" vertex="1" parent="1">
          <mxGeometry x="60" y="135" width="50" height="20" as="geometry" />
        </mxCell>
        <mxCell id="0ot7vCy0zlvDfJLgfHZY-47" value="&lt;font color=&quot;#000000&quot; style=&quot;font-size: 9px;&quot;&gt;$$f_\mathrm{ID}=1$$&lt;/font&gt;" style="text;html=1;resizable=0;autosize=1;align=center;verticalAlign=middle;points=[];fillColor=none;strokeColor=none;rounded=0;fontColor=#B3B3B3;fontSize=9;" vertex="1" parent="1">
          <mxGeometry x="125" y="135" width="110" height="20" as="geometry" />
        </mxCell>
        <mxCell id="0ot7vCy0zlvDfJLgfHZY-55" value="&lt;font face=&quot;Times New Roman&quot;&gt;&lt;font style=&quot;font-size: 12px;&quot; color=&quot;#000000&quot;&gt;CL-DeePC:&amp;nbsp;&lt;/font&gt;&lt;font color=&quot;#000000&quot; style=&quot;font-size: 12px;&quot;&gt;\(N=\bar{N}-p\)&lt;/font&gt;&lt;/font&gt;&lt;font face=&quot;Times New Roman&quot; style=&quot;font-size: 12px;&quot; color=&quot;#000000&quot;&gt;&lt;br&gt;&lt;/font&gt;" style="text;html=1;resizable=0;autosize=1;align=center;verticalAlign=middle;points=[];fillColor=none;strokeColor=none;rounded=0;fontColor=#B3B3B3;fontStyle=2;fontSize=14;" vertex="1" parent="1">
          <mxGeometry x="239" y="123" width="160" height="30" as="geometry" />
        </mxCell>
        <mxCell id="0ot7vCy0zlvDfJLgfHZY-56" value="" style="labelPosition=right;align=left;strokeWidth=1;shape=mxgraph.mockup.markup.curlyBrace;html=1;shadow=0;dashed=0;strokeColor=#000000;direction=north;rotation=-180;" vertex="1" parent="1">
          <mxGeometry x="243" y="89.5" width="20" height="26.5" as="geometry" />
        </mxCell>
        <mxCell id="0ot7vCy0zlvDfJLgfHZY-57" value="" style="labelPosition=right;align=left;strokeWidth=1;shape=mxgraph.mockup.markup.curlyBrace;html=1;shadow=0;dashed=0;strokeColor=#000000;direction=north;rotation=-180;" vertex="1" parent="1">
          <mxGeometry x="243" y="125.5" width="20" height="26.5" as="geometry" />
        </mxCell>
      </root>
    </mxGraphModel>
  </diagram>
</mxfile>
